<mxfile host="65bd71144e">
    <diagram id="7JCT6VPmBHSt-tSmqsZp" name="Page-1">
        <mxGraphModel dx="2424" dy="3237" grid="1" gridSize="10" guides="1" tooltips="1" connect="1" arrows="1" fold="1" page="1" pageScale="1" pageWidth="1200" pageHeight="1920" math="0" shadow="0">
            <root>
                <mxCell id="0"/>
                <mxCell id="1" parent="0"/>
                <mxCell id="115" value="" style="rounded=0;whiteSpace=wrap;html=1;shadow=0;glass=0;labelBackgroundColor=#000000;sketch=0;strokeColor=#999999;fontColor=#000000;fillColor=#333333;" parent="1" vertex="1">
                    <mxGeometry x="-80" y="440" width="1050" height="80" as="geometry"/>
                </mxCell>
                <mxCell id="37" value="" style="rounded=0;whiteSpace=wrap;html=1;strokeColor=#999999;fillColor=#333333;perimeterSpacing=0;glass=0;shadow=0;" parent="1" vertex="1">
                    <mxGeometry x="115" y="-350" width="855" height="780" as="geometry"/>
                </mxCell>
                <mxCell id="12" value="" style="html=1;shadow=0;dashed=0;shape=mxgraph.bootstrap.rrect;rSize=5;strokeColor=#CED4DA;html=1;whiteSpace=wrap;fillColor=#FFFFFF;fontColor=#7D868C;align=left;spacing=15;spacingLeft=40;fontSize=14;" parent="1" vertex="1">
                    <mxGeometry x="140" y="380" width="800" height="40" as="geometry"/>
                </mxCell>
                <mxCell id="15" value="" style="html=1;shadow=0;dashed=0;shape=mxgraph.bootstrap.rrect;rSize=5;strokeColor=#CED4DA;html=1;whiteSpace=wrap;fillColor=#CCCCCC;fontColor=#7D868C;align=left;spacing=15;spacingLeft=40;fontSize=14;" parent="1" vertex="1">
                    <mxGeometry x="140" y="340" width="800" height="40" as="geometry"/>
                </mxCell>
                <mxCell id="16" value="" style="html=1;shadow=0;dashed=0;shape=mxgraph.bootstrap.rrect;rSize=5;strokeColor=#CED4DA;html=1;whiteSpace=wrap;fillColor=#FFFFFF;fontColor=#7D868C;align=left;spacing=15;spacingLeft=40;fontSize=14;" parent="1" vertex="1">
                    <mxGeometry x="140" y="300" width="800" height="40" as="geometry"/>
                </mxCell>
                <mxCell id="17" value="" style="html=1;shadow=0;dashed=0;shape=mxgraph.bootstrap.rrect;rSize=5;strokeColor=#CED4DA;html=1;whiteSpace=wrap;fillColor=#FFFFFF;fontColor=#7D868C;align=left;spacing=15;spacingLeft=40;fontSize=14;" parent="1" vertex="1">
                    <mxGeometry x="140" y="220" width="800" height="40" as="geometry"/>
                </mxCell>
                <mxCell id="18" value="" style="html=1;shadow=0;dashed=0;shape=mxgraph.bootstrap.rrect;rSize=5;strokeColor=#CED4DA;html=1;whiteSpace=wrap;fillColor=#CCCCCC;fontColor=#7D868C;align=left;spacing=15;spacingLeft=40;fontSize=14;" parent="1" vertex="1">
                    <mxGeometry x="140" y="260" width="800" height="40" as="geometry"/>
                </mxCell>
                <mxCell id="19" value="" style="html=1;shadow=0;dashed=0;shape=mxgraph.bootstrap.rrect;rSize=5;strokeColor=#CED4DA;html=1;whiteSpace=wrap;fillColor=#CCCCCC;fontColor=#7D868C;align=left;spacing=15;spacingLeft=40;fontSize=14;" parent="1" vertex="1">
                    <mxGeometry x="140" y="140" width="800" height="40" as="geometry"/>
                </mxCell>
                <mxCell id="20" value="" style="html=1;shadow=0;dashed=0;shape=mxgraph.bootstrap.rrect;rSize=5;strokeColor=#CED4DA;html=1;whiteSpace=wrap;fillColor=#CCCCCC;fontColor=#7D868C;align=left;spacing=15;spacingLeft=40;fontSize=14;" parent="1" vertex="1">
                    <mxGeometry x="140" y="60" width="800" height="40" as="geometry"/>
                </mxCell>
                <mxCell id="21" value="" style="html=1;shadow=0;dashed=0;shape=mxgraph.bootstrap.rrect;rSize=5;strokeColor=#CED4DA;html=1;whiteSpace=wrap;fillColor=#CCCCCC;fontColor=#7D868C;align=left;spacing=15;spacingLeft=40;fontSize=14;" parent="1" vertex="1">
                    <mxGeometry x="140" y="-20" width="800" height="40" as="geometry"/>
                </mxCell>
                <mxCell id="22" value="" style="html=1;shadow=0;dashed=0;shape=mxgraph.bootstrap.rrect;rSize=5;strokeColor=#CED4DA;html=1;whiteSpace=wrap;fillColor=#CCCCCC;fontColor=#7D868C;align=left;spacing=15;spacingLeft=40;fontSize=14;" parent="1" vertex="1">
                    <mxGeometry x="140" y="-100" width="800" height="40" as="geometry"/>
                </mxCell>
                <mxCell id="23" value="" style="html=1;shadow=0;dashed=0;shape=mxgraph.bootstrap.rrect;rSize=5;strokeColor=#CED4DA;html=1;whiteSpace=wrap;fillColor=#CCCCCC;fontColor=#7D868C;align=left;spacing=15;spacingLeft=40;fontSize=14;" parent="1" vertex="1">
                    <mxGeometry x="140" y="-180" width="800" height="40" as="geometry"/>
                </mxCell>
                <mxCell id="24" value="" style="html=1;shadow=0;dashed=0;shape=mxgraph.bootstrap.rrect;rSize=5;strokeColor=#CED4DA;html=1;whiteSpace=wrap;fillColor=#CCCCCC;fontColor=#7D868C;align=left;spacing=15;spacingLeft=40;fontSize=14;" parent="1" vertex="1">
                    <mxGeometry x="140" y="-260" width="800" height="40" as="geometry"/>
                </mxCell>
                <mxCell id="25" value="" style="html=1;shadow=0;dashed=0;shape=mxgraph.bootstrap.rrect;rSize=5;strokeColor=#CED4DA;html=1;whiteSpace=wrap;fillColor=#CCCCCC;fontColor=#7D868C;align=left;spacing=15;spacingLeft=40;fontSize=14;" parent="1" vertex="1">
                    <mxGeometry x="140" y="-340" width="800" height="40" as="geometry"/>
                </mxCell>
                <mxCell id="26" value="" style="html=1;shadow=0;dashed=0;shape=mxgraph.bootstrap.rrect;rSize=5;strokeColor=#CED4DA;html=1;whiteSpace=wrap;fillColor=#FFFFFF;fontColor=#7D868C;align=left;spacing=15;spacingLeft=40;fontSize=14;" parent="1" vertex="1">
                    <mxGeometry x="140" y="180" width="800" height="40" as="geometry"/>
                </mxCell>
                <mxCell id="27" value="" style="html=1;shadow=0;dashed=0;shape=mxgraph.bootstrap.rrect;rSize=5;strokeColor=#CED4DA;html=1;whiteSpace=wrap;fillColor=#FFFFFF;fontColor=#7D868C;align=left;spacing=15;spacingLeft=40;fontSize=14;" parent="1" vertex="1">
                    <mxGeometry x="140" y="100" width="800" height="40" as="geometry"/>
                </mxCell>
                <mxCell id="28" value="" style="html=1;shadow=0;dashed=0;shape=mxgraph.bootstrap.rrect;rSize=5;strokeColor=#CED4DA;html=1;whiteSpace=wrap;fillColor=#FFFFFF;fontColor=#7D868C;align=left;spacing=15;spacingLeft=40;fontSize=14;" parent="1" vertex="1">
                    <mxGeometry x="140" y="20" width="800" height="40" as="geometry"/>
                </mxCell>
                <mxCell id="29" value="" style="html=1;shadow=0;dashed=0;shape=mxgraph.bootstrap.rrect;rSize=5;strokeColor=#CED4DA;html=1;whiteSpace=wrap;fillColor=#FFFFFF;fontColor=#7D868C;align=left;spacing=15;spacingLeft=40;fontSize=14;" parent="1" vertex="1">
                    <mxGeometry x="140" y="-60" width="800" height="40" as="geometry"/>
                </mxCell>
                <mxCell id="30" value="" style="html=1;shadow=0;dashed=0;shape=mxgraph.bootstrap.rrect;rSize=5;strokeColor=#CED4DA;html=1;whiteSpace=wrap;fillColor=#FFFFFF;fontColor=#7D868C;align=left;spacing=15;spacingLeft=40;fontSize=14;" parent="1" vertex="1">
                    <mxGeometry x="140" y="-140" width="800" height="40" as="geometry"/>
                </mxCell>
                <mxCell id="31" value="" style="html=1;shadow=0;dashed=0;shape=mxgraph.bootstrap.rrect;rSize=5;strokeColor=#CED4DA;html=1;whiteSpace=wrap;fillColor=#FFFFFF;fontColor=#7D868C;align=left;spacing=15;spacingLeft=40;fontSize=14;" parent="1" vertex="1">
                    <mxGeometry x="140" y="-220" width="800" height="40" as="geometry"/>
                </mxCell>
                <mxCell id="32" value="" style="html=1;shadow=0;dashed=0;shape=mxgraph.bootstrap.rrect;rSize=5;strokeColor=#CED4DA;html=1;whiteSpace=wrap;fillColor=#FFFFFF;fontColor=#7D868C;align=left;spacing=15;spacingLeft=40;fontSize=14;" parent="1" vertex="1">
                    <mxGeometry x="140" y="-300" width="800" height="40" as="geometry"/>
                </mxCell>
                <mxCell id="33" value="" style="html=1;verticalLabelPosition=bottom;labelBackgroundColor=#ffffff;verticalAlign=top;shadow=0;dashed=0;strokeWidth=2;shape=mxgraph.ios7.misc.scroll_(vertical);fillColor=#a0a0a0;strokeColor=#999999;" parent="1" vertex="1">
                    <mxGeometry x="950" y="230" width="10" height="180" as="geometry"/>
                </mxCell>
                <mxCell id="39" value="" style="html=1;shadow=0;dashed=0;shape=mxgraph.bootstrap.rrect;rSize=5;strokeColor=#CED4DA;html=1;whiteSpace=wrap;fillColor=#FFFFFF;fontColor=#7D868C;align=left;spacing=15;spacingLeft=40;fontSize=14;" parent="1" vertex="1">
                    <mxGeometry x="140" y="460" width="800" height="40" as="geometry"/>
                </mxCell>
                <mxCell id="40" value="" style="ellipse;shape=doubleEllipse;whiteSpace=wrap;html=1;aspect=fixed;rounded=0;shadow=0;glass=0;sketch=0;strokeColor=#999999;fillColor=#333333;" parent="1" vertex="1">
                    <mxGeometry x="150" y="385" width="30" height="30" as="geometry"/>
                </mxCell>
                <mxCell id="41" value="" style="ellipse;shape=doubleEllipse;whiteSpace=wrap;html=1;aspect=fixed;rounded=0;shadow=0;glass=0;sketch=0;strokeColor=#999999;fillColor=#333333;" parent="1" vertex="1">
                    <mxGeometry x="150" y="345" width="30" height="30" as="geometry"/>
                </mxCell>
                <mxCell id="42" value="" style="ellipse;shape=doubleEllipse;whiteSpace=wrap;html=1;aspect=fixed;rounded=0;shadow=0;glass=0;sketch=0;strokeColor=#999999;fillColor=#333333;" parent="1" vertex="1">
                    <mxGeometry x="150" y="305" width="30" height="30" as="geometry"/>
                </mxCell>
                <mxCell id="43" value="" style="ellipse;shape=doubleEllipse;whiteSpace=wrap;html=1;aspect=fixed;rounded=0;shadow=0;glass=0;sketch=0;strokeColor=#999999;fillColor=#333333;" parent="1" vertex="1">
                    <mxGeometry x="150" y="265" width="30" height="30" as="geometry"/>
                </mxCell>
                <mxCell id="44" value="" style="ellipse;shape=doubleEllipse;whiteSpace=wrap;html=1;aspect=fixed;rounded=0;shadow=0;glass=0;sketch=0;strokeColor=#999999;fillColor=#333333;" parent="1" vertex="1">
                    <mxGeometry x="150" y="225" width="30" height="30" as="geometry"/>
                </mxCell>
                <mxCell id="45" value="" style="ellipse;shape=doubleEllipse;whiteSpace=wrap;html=1;aspect=fixed;rounded=0;shadow=0;glass=0;sketch=0;strokeColor=#999999;fillColor=#333333;" parent="1" vertex="1">
                    <mxGeometry x="150" y="185" width="30" height="30" as="geometry"/>
                </mxCell>
                <mxCell id="52" value="" style="ellipse;shape=doubleEllipse;whiteSpace=wrap;html=1;aspect=fixed;rounded=0;shadow=0;glass=0;sketch=0;strokeColor=#999999;fillColor=#333333;" parent="1" vertex="1">
                    <mxGeometry x="150" y="145" width="30" height="30" as="geometry"/>
                </mxCell>
                <mxCell id="53" value="" style="ellipse;shape=doubleEllipse;whiteSpace=wrap;html=1;aspect=fixed;rounded=0;shadow=0;glass=0;sketch=0;strokeColor=#999999;fillColor=#333333;" parent="1" vertex="1">
                    <mxGeometry x="150" y="105" width="30" height="30" as="geometry"/>
                </mxCell>
                <mxCell id="54" value="" style="ellipse;shape=doubleEllipse;whiteSpace=wrap;html=1;aspect=fixed;rounded=0;shadow=0;glass=0;sketch=0;strokeColor=#999999;fillColor=#333333;" parent="1" vertex="1">
                    <mxGeometry x="150" y="65" width="30" height="30" as="geometry"/>
                </mxCell>
                <mxCell id="55" value="" style="ellipse;shape=doubleEllipse;whiteSpace=wrap;html=1;aspect=fixed;rounded=0;shadow=0;glass=0;sketch=0;strokeColor=#999999;fillColor=#333333;" parent="1" vertex="1">
                    <mxGeometry x="150" y="25" width="30" height="30" as="geometry"/>
                </mxCell>
                <mxCell id="56" value="" style="ellipse;shape=doubleEllipse;whiteSpace=wrap;html=1;aspect=fixed;rounded=0;shadow=0;glass=0;sketch=0;strokeColor=#999999;fillColor=#333333;" parent="1" vertex="1">
                    <mxGeometry x="150" y="-15" width="30" height="30" as="geometry"/>
                </mxCell>
                <mxCell id="57" value="" style="ellipse;shape=doubleEllipse;whiteSpace=wrap;html=1;aspect=fixed;rounded=0;shadow=0;glass=0;sketch=0;strokeColor=#999999;fillColor=#333333;" parent="1" vertex="1">
                    <mxGeometry x="150" y="-55" width="30" height="30" as="geometry"/>
                </mxCell>
                <mxCell id="58" value="" style="ellipse;shape=doubleEllipse;whiteSpace=wrap;html=1;aspect=fixed;rounded=0;shadow=0;glass=0;sketch=0;strokeColor=#999999;fillColor=#333333;" parent="1" vertex="1">
                    <mxGeometry x="150" y="-95" width="30" height="30" as="geometry"/>
                </mxCell>
                <mxCell id="59" value="" style="ellipse;shape=doubleEllipse;whiteSpace=wrap;html=1;aspect=fixed;rounded=0;shadow=0;glass=0;sketch=0;strokeColor=#999999;fillColor=#333333;" parent="1" vertex="1">
                    <mxGeometry x="150" y="-135" width="30" height="30" as="geometry"/>
                </mxCell>
                <mxCell id="60" value="" style="ellipse;shape=doubleEllipse;whiteSpace=wrap;html=1;aspect=fixed;rounded=0;shadow=0;glass=0;sketch=0;strokeColor=#999999;fillColor=#333333;" parent="1" vertex="1">
                    <mxGeometry x="150" y="-175" width="30" height="30" as="geometry"/>
                </mxCell>
                <mxCell id="61" value="" style="ellipse;shape=doubleEllipse;whiteSpace=wrap;html=1;aspect=fixed;rounded=0;shadow=0;glass=0;sketch=0;strokeColor=#999999;fillColor=#333333;" parent="1" vertex="1">
                    <mxGeometry x="150" y="-215" width="30" height="30" as="geometry"/>
                </mxCell>
                <mxCell id="62" value="" style="ellipse;shape=doubleEllipse;whiteSpace=wrap;html=1;aspect=fixed;rounded=0;shadow=0;glass=0;sketch=0;strokeColor=#999999;fillColor=#333333;" parent="1" vertex="1">
                    <mxGeometry x="150" y="-255" width="30" height="30" as="geometry"/>
                </mxCell>
                <mxCell id="63" value="" style="ellipse;shape=doubleEllipse;whiteSpace=wrap;html=1;aspect=fixed;rounded=0;shadow=0;glass=0;sketch=0;strokeColor=#999999;fillColor=#333333;" parent="1" vertex="1">
                    <mxGeometry x="150" y="-295" width="30" height="30" as="geometry"/>
                </mxCell>
                <mxCell id="64" value="" style="ellipse;shape=doubleEllipse;whiteSpace=wrap;html=1;aspect=fixed;rounded=0;shadow=0;glass=0;sketch=0;strokeColor=#999999;fillColor=#333333;" parent="1" vertex="1">
                    <mxGeometry x="150" y="-335" width="30" height="30" as="geometry"/>
                </mxCell>
                <mxCell id="65" value="&lt;font color=&quot;#000000&quot;&gt;USERNAME&lt;/font&gt;" style="text;html=1;align=center;verticalAlign=middle;whiteSpace=wrap;rounded=0;shadow=0;glass=0;sketch=0;" parent="1" vertex="1">
                    <mxGeometry x="190" y="385" width="80" height="30" as="geometry"/>
                </mxCell>
                <mxCell id="66" value="&lt;font color=&quot;#000000&quot;&gt;USERNAME&lt;/font&gt;" style="text;html=1;align=center;verticalAlign=middle;whiteSpace=wrap;rounded=0;shadow=0;glass=0;sketch=0;" parent="1" vertex="1">
                    <mxGeometry x="190" y="345" width="80" height="30" as="geometry"/>
                </mxCell>
                <mxCell id="67" value="&lt;font color=&quot;#000000&quot;&gt;USERNAME&lt;/font&gt;" style="text;html=1;align=center;verticalAlign=middle;whiteSpace=wrap;rounded=0;shadow=0;glass=0;sketch=0;" parent="1" vertex="1">
                    <mxGeometry x="190" y="305" width="80" height="30" as="geometry"/>
                </mxCell>
                <mxCell id="68" value="&lt;font color=&quot;#000000&quot;&gt;USERNAME&lt;/font&gt;" style="text;html=1;align=center;verticalAlign=middle;whiteSpace=wrap;rounded=0;shadow=0;glass=0;sketch=0;" parent="1" vertex="1">
                    <mxGeometry x="190" y="265" width="80" height="30" as="geometry"/>
                </mxCell>
                <mxCell id="69" value="&lt;font color=&quot;#000000&quot;&gt;USERNAME&lt;/font&gt;" style="text;html=1;align=center;verticalAlign=middle;whiteSpace=wrap;rounded=0;shadow=0;glass=0;sketch=0;" parent="1" vertex="1">
                    <mxGeometry x="190" y="225" width="80" height="30" as="geometry"/>
                </mxCell>
                <mxCell id="70" value="&lt;font color=&quot;#000000&quot;&gt;USERNAME&lt;/font&gt;" style="text;html=1;align=center;verticalAlign=middle;whiteSpace=wrap;rounded=0;shadow=0;glass=0;sketch=0;" parent="1" vertex="1">
                    <mxGeometry x="190" y="185" width="80" height="30" as="geometry"/>
                </mxCell>
                <mxCell id="71" value="&lt;font color=&quot;#000000&quot;&gt;USERNAME&lt;/font&gt;" style="text;html=1;align=center;verticalAlign=middle;whiteSpace=wrap;rounded=0;shadow=0;glass=0;sketch=0;" parent="1" vertex="1">
                    <mxGeometry x="190" y="145" width="80" height="30" as="geometry"/>
                </mxCell>
                <mxCell id="72" value="&lt;font color=&quot;#000000&quot;&gt;USERNAME&lt;/font&gt;" style="text;html=1;align=center;verticalAlign=middle;whiteSpace=wrap;rounded=0;shadow=0;glass=0;sketch=0;" parent="1" vertex="1">
                    <mxGeometry x="190" y="105" width="80" height="30" as="geometry"/>
                </mxCell>
                <mxCell id="73" value="&lt;font color=&quot;#000000&quot;&gt;USERNAME&lt;/font&gt;" style="text;html=1;align=center;verticalAlign=middle;whiteSpace=wrap;rounded=0;shadow=0;glass=0;sketch=0;" parent="1" vertex="1">
                    <mxGeometry x="190" y="65" width="80" height="30" as="geometry"/>
                </mxCell>
                <mxCell id="74" value="&lt;font color=&quot;#000000&quot;&gt;USERNAME&lt;/font&gt;" style="text;html=1;align=center;verticalAlign=middle;whiteSpace=wrap;rounded=0;shadow=0;glass=0;sketch=0;" parent="1" vertex="1">
                    <mxGeometry x="190" y="25" width="80" height="30" as="geometry"/>
                </mxCell>
                <mxCell id="75" value="&lt;font color=&quot;#000000&quot;&gt;USERNAME&lt;/font&gt;" style="text;html=1;align=center;verticalAlign=middle;whiteSpace=wrap;rounded=0;shadow=0;glass=0;sketch=0;" parent="1" vertex="1">
                    <mxGeometry x="190" y="-15" width="80" height="30" as="geometry"/>
                </mxCell>
                <mxCell id="76" value="&lt;font color=&quot;#000000&quot;&gt;USERNAME&lt;/font&gt;" style="text;html=1;align=center;verticalAlign=middle;whiteSpace=wrap;rounded=0;shadow=0;glass=0;sketch=0;" parent="1" vertex="1">
                    <mxGeometry x="190" y="-55" width="80" height="30" as="geometry"/>
                </mxCell>
                <mxCell id="77" value="&lt;font color=&quot;#000000&quot;&gt;USERNAME&lt;/font&gt;" style="text;html=1;align=center;verticalAlign=middle;whiteSpace=wrap;rounded=0;shadow=0;glass=0;sketch=0;" parent="1" vertex="1">
                    <mxGeometry x="190" y="-95" width="80" height="30" as="geometry"/>
                </mxCell>
                <mxCell id="78" value="&lt;font color=&quot;#000000&quot;&gt;USERNAME&lt;/font&gt;" style="text;html=1;align=center;verticalAlign=middle;whiteSpace=wrap;rounded=0;shadow=0;glass=0;sketch=0;" parent="1" vertex="1">
                    <mxGeometry x="190" y="-135" width="80" height="30" as="geometry"/>
                </mxCell>
                <mxCell id="79" value="&lt;font color=&quot;#000000&quot;&gt;USERNAME&lt;/font&gt;" style="text;html=1;align=center;verticalAlign=middle;whiteSpace=wrap;rounded=0;shadow=0;glass=0;sketch=0;" parent="1" vertex="1">
                    <mxGeometry x="190" y="-175" width="80" height="30" as="geometry"/>
                </mxCell>
                <mxCell id="80" value="&lt;font color=&quot;#000000&quot;&gt;USERNAME&lt;/font&gt;" style="text;html=1;align=center;verticalAlign=middle;whiteSpace=wrap;rounded=0;shadow=0;glass=0;sketch=0;" parent="1" vertex="1">
                    <mxGeometry x="190" y="-215" width="80" height="30" as="geometry"/>
                </mxCell>
                <mxCell id="81" value="&lt;font color=&quot;#000000&quot;&gt;USERNAME&lt;/font&gt;" style="text;html=1;align=center;verticalAlign=middle;whiteSpace=wrap;rounded=0;shadow=0;glass=0;sketch=0;" parent="1" vertex="1">
                    <mxGeometry x="190" y="-255" width="80" height="30" as="geometry"/>
                </mxCell>
                <mxCell id="82" value="&lt;font color=&quot;#000000&quot;&gt;USERNAME&lt;/font&gt;" style="text;html=1;align=center;verticalAlign=middle;whiteSpace=wrap;rounded=0;shadow=0;glass=0;sketch=0;" parent="1" vertex="1">
                    <mxGeometry x="190" y="-295" width="80" height="30" as="geometry"/>
                </mxCell>
                <mxCell id="83" value="&lt;font color=&quot;#000000&quot;&gt;USERNAME&lt;/font&gt;" style="text;html=1;align=center;verticalAlign=middle;whiteSpace=wrap;rounded=0;shadow=0;glass=0;sketch=0;" parent="1" vertex="1">
                    <mxGeometry x="190" y="-335" width="80" height="30" as="geometry"/>
                </mxCell>
                <mxCell id="84" value="&lt;font color=&quot;#000000&quot;&gt;February 6th, 2024 02:05pm&lt;/font&gt;" style="text;html=1;align=center;verticalAlign=middle;whiteSpace=wrap;rounded=0;shadow=0;glass=0;sketch=0;" parent="1" vertex="1">
                    <mxGeometry x="800" y="-335" width="130" height="30" as="geometry"/>
                </mxCell>
                <mxCell id="85" value="&lt;font color=&quot;#000000&quot;&gt;February 6th, 2024 02:05pm&lt;/font&gt;" style="text;html=1;align=center;verticalAlign=middle;whiteSpace=wrap;rounded=0;shadow=0;glass=0;sketch=0;" parent="1" vertex="1">
                    <mxGeometry x="800" y="-295" width="130" height="30" as="geometry"/>
                </mxCell>
                <mxCell id="86" value="&lt;font color=&quot;#000000&quot;&gt;February 6th, 2024 02:05pm&lt;/font&gt;" style="text;html=1;align=center;verticalAlign=middle;whiteSpace=wrap;rounded=0;shadow=0;glass=0;sketch=0;" parent="1" vertex="1">
                    <mxGeometry x="800" y="-255" width="130" height="30" as="geometry"/>
                </mxCell>
                <mxCell id="87" value="&lt;font color=&quot;#000000&quot;&gt;February 6th, 2024 02:05pm&lt;/font&gt;" style="text;html=1;align=center;verticalAlign=middle;whiteSpace=wrap;rounded=0;shadow=0;glass=0;sketch=0;" parent="1" vertex="1">
                    <mxGeometry x="800" y="-215" width="130" height="30" as="geometry"/>
                </mxCell>
                <mxCell id="88" value="&lt;font color=&quot;#000000&quot;&gt;February 6th, 2024 02:05pm&lt;/font&gt;" style="text;html=1;align=center;verticalAlign=middle;whiteSpace=wrap;rounded=0;shadow=0;glass=0;sketch=0;" parent="1" vertex="1">
                    <mxGeometry x="800" y="-175" width="130" height="30" as="geometry"/>
                </mxCell>
                <mxCell id="89" value="&lt;font color=&quot;#000000&quot;&gt;February 6th, 2024 02:05pm&lt;/font&gt;" style="text;html=1;align=center;verticalAlign=middle;whiteSpace=wrap;rounded=0;shadow=0;glass=0;sketch=0;" parent="1" vertex="1">
                    <mxGeometry x="800" y="-135" width="130" height="30" as="geometry"/>
                </mxCell>
                <mxCell id="90" value="&lt;font color=&quot;#000000&quot;&gt;February 6th, 2024 02:05pm&lt;/font&gt;" style="text;html=1;align=center;verticalAlign=middle;whiteSpace=wrap;rounded=0;shadow=0;glass=0;sketch=0;" parent="1" vertex="1">
                    <mxGeometry x="800" y="-95" width="130" height="30" as="geometry"/>
                </mxCell>
                <mxCell id="91" value="&lt;font color=&quot;#000000&quot;&gt;February 6th, 2024 02:05pm&lt;/font&gt;" style="text;html=1;align=center;verticalAlign=middle;whiteSpace=wrap;rounded=0;shadow=0;glass=0;sketch=0;" parent="1" vertex="1">
                    <mxGeometry x="810" y="-55" width="130" height="30" as="geometry"/>
                </mxCell>
                <mxCell id="92" value="&lt;font color=&quot;#000000&quot;&gt;February 6th, 2024 02:05pm&lt;/font&gt;" style="text;html=1;align=center;verticalAlign=middle;whiteSpace=wrap;rounded=0;shadow=0;glass=0;sketch=0;" parent="1" vertex="1">
                    <mxGeometry x="810" y="-15" width="130" height="30" as="geometry"/>
                </mxCell>
                <mxCell id="93" value="&lt;font color=&quot;#000000&quot;&gt;February 6th, 2024 02:05pm&lt;/font&gt;" style="text;html=1;align=center;verticalAlign=middle;whiteSpace=wrap;rounded=0;shadow=0;glass=0;sketch=0;" parent="1" vertex="1">
                    <mxGeometry x="810" y="25" width="130" height="30" as="geometry"/>
                </mxCell>
                <mxCell id="94" value="&lt;font color=&quot;#000000&quot;&gt;February 6th, 2024 02:05pm&lt;/font&gt;" style="text;html=1;align=center;verticalAlign=middle;whiteSpace=wrap;rounded=0;shadow=0;glass=0;sketch=0;" parent="1" vertex="1">
                    <mxGeometry x="810" y="65" width="130" height="30" as="geometry"/>
                </mxCell>
                <mxCell id="95" value="&lt;font color=&quot;#000000&quot;&gt;February 6th, 2024 02:05pm&lt;/font&gt;" style="text;html=1;align=center;verticalAlign=middle;whiteSpace=wrap;rounded=0;shadow=0;glass=0;sketch=0;" parent="1" vertex="1">
                    <mxGeometry x="810" y="105" width="130" height="30" as="geometry"/>
                </mxCell>
                <mxCell id="96" value="&lt;font color=&quot;#000000&quot;&gt;February 6th, 2024 02:05pm&lt;/font&gt;" style="text;html=1;align=center;verticalAlign=middle;whiteSpace=wrap;rounded=0;shadow=0;glass=0;sketch=0;" parent="1" vertex="1">
                    <mxGeometry x="810" y="145" width="130" height="30" as="geometry"/>
                </mxCell>
                <mxCell id="97" value="&lt;font color=&quot;#000000&quot;&gt;February 6th, 2024 02:05pm&lt;/font&gt;" style="text;html=1;align=center;verticalAlign=middle;whiteSpace=wrap;rounded=0;shadow=0;glass=0;sketch=0;" parent="1" vertex="1">
                    <mxGeometry x="810" y="185" width="130" height="30" as="geometry"/>
                </mxCell>
                <mxCell id="98" value="&lt;font color=&quot;#000000&quot;&gt;February 6th, 2024 02:05pm&lt;/font&gt;" style="text;html=1;align=center;verticalAlign=middle;whiteSpace=wrap;rounded=0;shadow=0;glass=0;sketch=0;" parent="1" vertex="1">
                    <mxGeometry x="810" y="225" width="130" height="30" as="geometry"/>
                </mxCell>
                <mxCell id="99" value="&lt;font color=&quot;#000000&quot;&gt;February 6th, 2024 02:05pm&lt;/font&gt;" style="text;html=1;align=center;verticalAlign=middle;whiteSpace=wrap;rounded=0;shadow=0;glass=0;sketch=0;" parent="1" vertex="1">
                    <mxGeometry x="810" y="265" width="130" height="30" as="geometry"/>
                </mxCell>
                <mxCell id="100" value="&lt;font color=&quot;#000000&quot;&gt;February 6th, 2024 02:05pm&lt;/font&gt;" style="text;html=1;align=center;verticalAlign=middle;whiteSpace=wrap;rounded=0;shadow=0;glass=0;sketch=0;" parent="1" vertex="1">
                    <mxGeometry x="810" y="305" width="130" height="30" as="geometry"/>
                </mxCell>
                <mxCell id="101" value="&lt;font color=&quot;#000000&quot;&gt;February 6th, 2024 02:05pm&lt;/font&gt;" style="text;html=1;align=center;verticalAlign=middle;whiteSpace=wrap;rounded=0;shadow=0;glass=0;sketch=0;" parent="1" vertex="1">
                    <mxGeometry x="810" y="345" width="130" height="30" as="geometry"/>
                </mxCell>
                <mxCell id="102" value="&lt;font color=&quot;#000000&quot;&gt;February 6th, 2024 02:05pm&lt;/font&gt;" style="text;html=1;align=center;verticalAlign=middle;whiteSpace=wrap;rounded=0;shadow=0;glass=0;sketch=0;" parent="1" vertex="1">
                    <mxGeometry x="810" y="385" width="130" height="30" as="geometry"/>
                </mxCell>
                <mxCell id="106" value="" style="rounded=0;whiteSpace=wrap;html=1;shadow=0;glass=0;labelBackgroundColor=#000000;sketch=0;strokeColor=#999999;fontColor=#000000;fillColor=#333333;" parent="1" vertex="1">
                    <mxGeometry x="-80" y="-350" width="190" height="780" as="geometry"/>
                </mxCell>
                <mxCell id="107" value="" style="rounded=0;whiteSpace=wrap;html=1;shadow=0;glass=0;labelBackgroundColor=#000000;sketch=0;strokeColor=#999999;fontColor=#000000;fillColor=#333333;" parent="1" vertex="1">
                    <mxGeometry x="-80" y="-450" width="1050" height="90" as="geometry"/>
                </mxCell>
                <mxCell id="117" value="" style="html=1;verticalLabelPosition=bottom;align=center;labelBackgroundColor=#ffffff;verticalAlign=top;strokeWidth=2;strokeColor=#0080F0;shadow=0;dashed=0;shape=mxgraph.ios7.icons.pointer;rounded=0;glass=0;sketch=0;fontColor=#000000;fillColor=#333333;rotation=45;" parent="1" vertex="1">
                    <mxGeometry x="890" y="465" width="30" height="30" as="geometry"/>
                </mxCell>
                <mxCell id="120" value="&lt;font color=&quot;#ffffff&quot;&gt;DisClone&lt;/font&gt;" style="text;strokeColor=none;fillColor=none;html=1;fontSize=24;fontStyle=1;verticalAlign=middle;align=center;rounded=0;shadow=0;glass=0;labelBackgroundColor=none;sketch=0;fontColor=#000000;" parent="1" vertex="1">
                    <mxGeometry x="400" y="-425" width="100" height="40" as="geometry"/>
                </mxCell>
                <mxCell id="122" value="" style="group" parent="1" vertex="1" connectable="0">
                    <mxGeometry x="860" y="-442.5" width="75" height="75" as="geometry"/>
                </mxCell>
                <mxCell id="118" value="" style="ellipse;shape=doubleEllipse;whiteSpace=wrap;html=1;aspect=fixed;rounded=0;shadow=0;glass=0;labelBackgroundColor=none;sketch=0;strokeColor=#999999;fontColor=#000000;fillColor=#333333;" parent="122" vertex="1">
                    <mxGeometry width="75" height="75" as="geometry"/>
                </mxCell>
                <mxCell id="119" value="" style="shape=umlActor;verticalLabelPosition=bottom;verticalAlign=top;html=1;outlineConnect=0;rounded=0;shadow=0;glass=0;labelBackgroundColor=none;sketch=0;strokeColor=#999999;fontColor=#000000;fillColor=#333333;" parent="122" vertex="1">
                    <mxGeometry x="27.5" y="12.5" width="20" height="50" as="geometry"/>
                </mxCell>
                <mxCell id="124" value="" style="group" parent="1" vertex="1" connectable="0">
                    <mxGeometry x="-70" y="20" width="50" height="55" as="geometry"/>
                </mxCell>
                <mxCell id="125" value="" style="ellipse;shape=doubleEllipse;whiteSpace=wrap;html=1;aspect=fixed;rounded=0;shadow=0;glass=0;labelBackgroundColor=none;sketch=0;strokeColor=#999999;fontColor=#000000;fillColor=#333333;" parent="124" vertex="1">
                    <mxGeometry width="50" height="50" as="geometry"/>
                </mxCell>
                <mxCell id="126" value="" style="shape=umlActor;verticalLabelPosition=bottom;verticalAlign=top;html=1;outlineConnect=0;rounded=0;shadow=0;glass=0;labelBackgroundColor=none;sketch=0;strokeColor=#999999;fontColor=#000000;fillColor=#333333;" parent="124" vertex="1">
                    <mxGeometry x="18.333333333333332" y="9.166666666666666" width="13.333333333333332" height="36.666666666666664" as="geometry"/>
                </mxCell>
                <mxCell id="133" value="" style="group" parent="1" vertex="1" connectable="0">
                    <mxGeometry x="-50" y="20" width="86.66" height="55" as="geometry"/>
                </mxCell>
                <mxCell id="134" value="" style="ellipse;shape=doubleEllipse;whiteSpace=wrap;html=1;aspect=fixed;rounded=0;shadow=0;glass=0;labelBackgroundColor=none;sketch=0;strokeColor=#999999;fontColor=#000000;fillColor=#333333;" parent="133" vertex="1">
                    <mxGeometry width="50" height="50" as="geometry"/>
                </mxCell>
                <mxCell id="135" value="" style="shape=umlActor;verticalLabelPosition=bottom;verticalAlign=top;html=1;outlineConnect=0;rounded=0;shadow=0;glass=0;labelBackgroundColor=none;sketch=0;strokeColor=#999999;fontColor=#000000;fillColor=#333333;" parent="133" vertex="1">
                    <mxGeometry x="18.333333333333332" y="9.166666666666666" width="13.333333333333332" height="36.666666666666664" as="geometry"/>
                </mxCell>
                <mxCell id="139" value="" style="group" parent="133" vertex="1" connectable="0">
                    <mxGeometry x="18.33" width="68.33" height="55" as="geometry"/>
                </mxCell>
                <mxCell id="140" value="" style="ellipse;shape=doubleEllipse;whiteSpace=wrap;html=1;aspect=fixed;rounded=0;shadow=0;glass=0;labelBackgroundColor=none;sketch=0;strokeColor=#999999;fontColor=#000000;fillColor=#333333;" parent="139" vertex="1">
                    <mxGeometry width="50" height="50" as="geometry"/>
                </mxCell>
                <mxCell id="141" value="" style="shape=umlActor;verticalLabelPosition=bottom;verticalAlign=top;html=1;outlineConnect=0;rounded=0;shadow=0;glass=0;labelBackgroundColor=none;sketch=0;strokeColor=#999999;fontColor=#000000;fillColor=#333333;" parent="139" vertex="1">
                    <mxGeometry x="18.333333333333332" y="9.166666666666666" width="13.333333333333332" height="36.666666666666664" as="geometry"/>
                </mxCell>
                <mxCell id="145" value="" style="group" parent="139" vertex="1" connectable="0">
                    <mxGeometry x="18.330000000000002" width="50" height="55" as="geometry"/>
                </mxCell>
                <mxCell id="146" value="" style="ellipse;shape=doubleEllipse;whiteSpace=wrap;html=1;aspect=fixed;rounded=0;shadow=0;glass=0;labelBackgroundColor=none;sketch=0;strokeColor=#999999;fontColor=#000000;fillColor=#333333;" parent="145" vertex="1">
                    <mxGeometry width="50" height="50" as="geometry"/>
                </mxCell>
                <mxCell id="147" value="" style="shape=umlActor;verticalLabelPosition=bottom;verticalAlign=top;html=1;outlineConnect=0;rounded=0;shadow=0;glass=0;labelBackgroundColor=none;sketch=0;strokeColor=#999999;fontColor=#000000;fillColor=#333333;" parent="145" vertex="1">
                    <mxGeometry x="18.333333333333332" y="9.166666666666666" width="13.333333333333332" height="36.666666666666664" as="geometry"/>
                </mxCell>
                <mxCell id="148" value="" style="group" parent="1" vertex="1" connectable="0">
                    <mxGeometry x="-70" y="87.5" width="50" height="55" as="geometry"/>
                </mxCell>
                <mxCell id="149" value="" style="ellipse;shape=doubleEllipse;whiteSpace=wrap;html=1;aspect=fixed;rounded=0;shadow=0;glass=0;labelBackgroundColor=none;sketch=0;strokeColor=#999999;fontColor=#000000;fillColor=#333333;" parent="148" vertex="1">
                    <mxGeometry width="50" height="50" as="geometry"/>
                </mxCell>
                <mxCell id="150" value="" style="shape=umlActor;verticalLabelPosition=bottom;verticalAlign=top;html=1;outlineConnect=0;rounded=0;shadow=0;glass=0;labelBackgroundColor=none;sketch=0;strokeColor=#999999;fontColor=#000000;fillColor=#333333;" parent="148" vertex="1">
                    <mxGeometry x="18.333333333333332" y="9.166666666666666" width="13.333333333333332" height="36.666666666666664" as="geometry"/>
                </mxCell>
                <mxCell id="151" value="" style="group" parent="1" vertex="1" connectable="0">
                    <mxGeometry x="-70" y="147.5" width="68.33" height="55" as="geometry"/>
                </mxCell>
                <mxCell id="152" value="" style="ellipse;shape=doubleEllipse;whiteSpace=wrap;html=1;aspect=fixed;rounded=0;shadow=0;glass=0;labelBackgroundColor=none;sketch=0;strokeColor=#999999;fontColor=#000000;fillColor=#333333;" parent="151" vertex="1">
                    <mxGeometry width="50" height="50" as="geometry"/>
                </mxCell>
                <mxCell id="153" value="" style="shape=umlActor;verticalLabelPosition=bottom;verticalAlign=top;html=1;outlineConnect=0;rounded=0;shadow=0;glass=0;labelBackgroundColor=none;sketch=0;strokeColor=#999999;fontColor=#000000;fillColor=#333333;" parent="151" vertex="1">
                    <mxGeometry x="18.333333333333332" y="9.166666666666666" width="13.333333333333332" height="36.666666666666664" as="geometry"/>
                </mxCell>
                <mxCell id="154" value="" style="group" parent="151" vertex="1" connectable="0">
                    <mxGeometry x="18.33" width="50" height="55" as="geometry"/>
                </mxCell>
                <mxCell id="155" value="" style="ellipse;shape=doubleEllipse;whiteSpace=wrap;html=1;aspect=fixed;rounded=0;shadow=0;glass=0;labelBackgroundColor=none;sketch=0;strokeColor=#999999;fontColor=#000000;fillColor=#333333;" parent="154" vertex="1">
                    <mxGeometry width="50" height="50" as="geometry"/>
                </mxCell>
                <mxCell id="156" value="" style="shape=umlActor;verticalLabelPosition=bottom;verticalAlign=top;html=1;outlineConnect=0;rounded=0;shadow=0;glass=0;labelBackgroundColor=none;sketch=0;strokeColor=#999999;fontColor=#000000;fillColor=#333333;" parent="154" vertex="1">
                    <mxGeometry x="18.333333333333332" y="9.166666666666666" width="13.333333333333332" height="36.666666666666664" as="geometry"/>
                </mxCell>
                <mxCell id="157" value="CHANNELS" style="rounded=1;whiteSpace=wrap;html=1;shadow=0;glass=0;labelBackgroundColor=none;sketch=0;strokeColor=#999999;fontColor=#FFFFFF;fillColor=#333333;" parent="1" vertex="1">
                    <mxGeometry x="-67" y="-335" width="167" height="35" as="geometry"/>
                </mxCell>
                <mxCell id="158" value="" style="ellipse;shape=doubleEllipse;whiteSpace=wrap;html=1;aspect=fixed;rounded=0;shadow=0;glass=0;labelBackgroundColor=none;sketch=0;strokeColor=#999999;fontColor=#FFFFFF;fillColor=#333333;" parent="1" vertex="1">
                    <mxGeometry x="-15" y="-285" width="60" height="60" as="geometry"/>
                </mxCell>
                <mxCell id="159" value="" style="ellipse;shape=doubleEllipse;whiteSpace=wrap;html=1;aspect=fixed;rounded=0;shadow=0;glass=0;labelBackgroundColor=none;sketch=0;strokeColor=#999999;fontColor=#FFFFFF;fillColor=#333333;" parent="1" vertex="1">
                    <mxGeometry x="-15" y="-215" width="60" height="60" as="geometry"/>
                </mxCell>
                <mxCell id="160" value="" style="ellipse;shape=doubleEllipse;whiteSpace=wrap;html=1;aspect=fixed;rounded=0;shadow=0;glass=0;labelBackgroundColor=none;sketch=0;strokeColor=#999999;fontColor=#FFFFFF;fillColor=#333333;" parent="1" vertex="1">
                    <mxGeometry x="-15" y="-145" width="60" height="60" as="geometry"/>
                </mxCell>
                <mxCell id="161" value="CONVERSATIONS" style="rounded=1;whiteSpace=wrap;html=1;shadow=0;glass=0;labelBackgroundColor=none;sketch=0;strokeColor=#999999;fontColor=#FFFFFF;fillColor=#333333;" parent="1" vertex="1">
                    <mxGeometry x="-68.5" y="-35" width="167" height="35" as="geometry"/>
                </mxCell>
                <mxCell id="162" value="INVITE" style="rounded=1;whiteSpace=wrap;html=1;shadow=0;glass=0;labelBackgroundColor=none;sketch=0;strokeColor=#999999;fontColor=#FFFFFF;fillColor=#333333;" parent="1" vertex="1">
                    <mxGeometry x="-57" y="462.5" width="167" height="35" as="geometry"/>
                </mxCell>
            </root>
        </mxGraphModel>
    </diagram>
</mxfile>